<?xml version="1.0" encoding="iso-8859-1"?>
<!-- Generator: Adobe Illustrator 20.1.0, SVG Export Plug-In . SVG Version: 6.00 Build 0)  -->
<svg xmlns="http://www.w3.org/2000/svg" xmlns:xlink="http://www.w3.org/1999/xlink" version="1.1" id="&#1057;&#1083;&#1086;&#1081;_1" x="0px" y="0px" viewBox="0 0 64 64" style="enable-background:new 0 0 64 64;" xml:space="preserve">
<linearGradient id="SVGID_1__48172" gradientUnits="userSpaceOnUse" x1="32.0003" y1="6.0017" x2="32.0003" y2="58.6897" spreadMethod="reflect">
	<stop offset="0" style="stop-color:#1A6DFF"/>
	<stop offset="1" style="stop-color:#C822FF"/>
</linearGradient>
<path style="fill:url(#SVGID_1__48172);" d="M57.999,32c0-2.206-1.794-4-4-4h-0.087l0.143-0.393c0.474-1.301,0.413-2.709-0.173-3.965  c-0.019-0.042-0.049-0.076-0.069-0.117c1.134-0.11,2.164-0.825,2.582-1.932l1.415-3.736c0.281-0.743,0.25-1.55-0.086-2.271  c-0.346-0.741-0.969-1.3-1.755-1.575L33.518,6.176c-1.577-0.551-3.334,0.247-3.914,1.779l-1.414,3.737h0  c-0.281,0.743-0.25,1.549,0.085,2.27c0.144,0.309,0.345,0.576,0.577,0.815c-0.979,0.539-1.794,1.381-2.237,2.485l-1.543,3.851  L23.914,24h-2.915c-2.385,0-4.493,1.201-5.757,3.028C14.692,26.403,13.896,26,12.999,26h-4C7.345,26,6,27.346,6,29v22  c0,1.654,1.345,3,2.999,3h4c1.388,0,2.547-0.952,2.889-2.233C16.951,52.906,18,53.688,20,53.92V54c0,2.206,1.794,4,4,4  c1.2,0,2.266-0.542,3-1.382c0.734,0.84,1.8,1.382,3,1.382s2.266-0.542,3-1.382c0.734,0.84,1.8,1.382,3,1.382s2.266-0.542,3-1.382  c0.734,0.84,1.8,1.382,3,1.382c2.206,0,4-2,4-4h4c2.206,0,4-1.794,4-4c0-0.829-0.254-1.6-0.687-2.239  c1.559-0.546,2.687-2.017,2.687-3.761c0-1.2-0.542-2.266-1.382-3c0.84-0.734,1.382-1.8,1.382-3c0-0.829-0.254-1.6-0.687-2.239  C56.871,35.215,57.999,33.744,57.999,32z M30.06,12.4l1.414-3.737c0.199-0.525,0.82-0.792,1.384-0.598l22.451,7.834  c0.273,0.095,0.487,0.284,0.603,0.532c0.106,0.229,0.116,0.483,0.028,0.719l-1.415,3.736c-0.199,0.527-0.818,0.796-1.384,0.598  l-19.195-6.697l-0.929-0.348c-0.093-0.035-0.188-0.045-0.282-0.074l-2.044-0.713c-0.273-0.096-0.488-0.286-0.604-0.534  C29.981,12.889,29.971,12.634,30.06,12.4z M26.928,21.858l1.543-3.852c0.565-1.41,2.115-2.15,3.557-1.77l1.215,0.424l3.405,1.276  l0.029-0.078l13.671,4.769c0,0,1.362,1.089,1.722,1.86c0.359,0.771,0.397,1.636,0.106,2.435L51.784,28H30.56l-3.614,9.931  c-0.274,0.753-0.825,1.355-1.552,1.692c-0.727,0.34-1.542,0.376-2.293,0.101c-1.555-0.566-2.359-2.291-1.805-3.815L26.928,21.858z   M14,51c0,0.552-0.449,1-1.001,1h-4C8.448,52,8,51.552,8,51V29c0-0.552,0.448-1,0.999-1h4C13.551,28,14,28.449,14,29v2v3v9v4V51z   M24,56c-1.103,0-2-0.897-2-2v-2c0-1.103,0.897-2,2-2s2,0.897,2,2v2C26,55.103,25.103,56,24,56z M30,56c-1.103,0-2-0.897-2-2v-2v-1  c0-1.103,0.897-2,2-2s2,0.897,2,2v1v2C32,55.103,31.103,56,30,56z M36,56c-1.103,0-2-0.897-2-2v-2c0-1.103,0.897-2,2-2s2,0.897,2,2  v2C38,55.103,37.103,56,36,56z M41.999,56c-1.103,0-2-0.897-2-2s0.897-2,2-2s2,0.897,2,2S43.102,56,41.999,56z M53.999,34H42v2  h9.999c1.103,0,2,0.897,2,2s-0.897,2-2,2H42v2h9.999c1.103,0,2,0.897,2,2s-0.897,2-2,2H42v2h7.999c1.103,0,2,0.897,2,2s-0.897,2-2,2  h-4.556c-0.694-1-1.97-2-3.444-2c-0.829,0-1.6,0.254-2.239,0.688C39.214,49.128,37.743,48,35.999,48  c-0.986,0-1.877,0.372-2.575,0.965C32.726,47.794,31.459,47,29.999,47s-2.726,0.794-3.425,1.965C25.877,48.372,24.985,48,23.999,48  c-2.171,0-3.935,1.741-3.99,3.9C17.726,51.439,16,49.418,16,47v-4v-9v-3c0-2.757,2.243-5,4.999-5h2.113l-3.685,9.194  c-0.943,2.59,0.397,5.465,2.988,6.408c0.558,0.203,1.137,0.305,1.713,0.305c0.72,0,1.438-0.158,2.11-0.471  c1.21-0.564,2.129-1.567,2.585-2.822L31.96,30h22.039c1.103,0,2,0.897,2,2S55.102,34,53.999,34z"/>
<linearGradient id="SVGID_2__48172" gradientUnits="userSpaceOnUse" x1="11" y1="29.3333" x2="11" y2="51.064" spreadMethod="reflect">
	<stop offset="0" style="stop-color:#6DC7FF"/>
	<stop offset="1" style="stop-color:#E6ABFF"/>
</linearGradient>
<path style="fill:url(#SVGID_2__48172);" d="M12,49c0,0.552-0.448,1-1,1h0c-0.552,0-1-0.448-1-1V31c0-0.552,0.448-1,1-1h0  c0.552,0,1,0.448,1,1V49z"/>
</svg>
